<svg width="100" height="64" viewBox="0 0 100 64" fill="none" xmlns="http://www.w3.org/2000/svg">
<path d="M7.5 1.5H57.5C61.1418 1.5 63.5 3.81098 63.5 6V13.5H71.8906C73.4636 13.5 74.9393 13.9762 76.0361 14.7705L76.25 14.9336L91.8594 27.4209C92.967 28.307 93.4999 29.4241 93.5 30.4873V45.5H97.5C97.8676 45.5 98.1568 45.6219 98.3281 45.7588C98.4979 45.8946 98.5 45.991 98.5 46V50C98.5 50.009 98.4979 50.1054 98.3281 50.2412C98.1568 50.3781 97.8676 50.5 97.5 50.5H88.5V52C88.5 57.5015 82.7825 62.5 75 62.5C67.2175 62.5 61.5 57.5015 61.5 52V50.5H38.5V52C38.5 57.5015 32.7825 62.5 25 62.5C17.2175 62.5 11.5 57.5015 11.5 52V50.5H7.5C3.85816 50.5 1.5 48.189 1.5 46V6C1.5 3.81098 3.85816 1.5 7.5 1.5ZM25 44.5C20.3606 44.5 16 47.564 16 52C16 56.436 20.3606 59.5 25 59.5C29.6394 59.5 34 56.436 34 52C34 47.564 29.6394 44.5 25 44.5ZM75 44.5C70.3606 44.5 66 47.564 66 52C66 56.436 70.3606 59.5 75 59.5C79.6394 59.5 84 56.436 84 52C84 47.564 79.6394 44.5 75 44.5ZM89 29.7666L88.4375 29.3164L72.8281 16.8291L72.417 16.5H63.5V33.5H89V29.7666Z" stroke="#F07807" stroke-width="3"/>
</svg>
