<svg width="104" height="65" viewBox="0 0 104 65" fill="none" xmlns="http://www.w3.org/2000/svg">
<path d="M25.2412 1.5H60.001L60.5107 1.5127C61.5256 1.56381 62.5209 1.76705 63.4541 2.11133L63.915 2.29492C64.9784 2.7512 65.9185 3.38474 66.6875 4.15039L67.0059 4.48633L84.6826 24.2148L85.1299 24.7139H88.4004C96.3518 24.7141 102.5 30.4339 102.5 37.1426V48.75C102.5 49.0488 102.173 49.5711 101.4 49.5713H92.0996V51.0713C92.0996 57.7802 85.9517 63.5 78 63.5C70.0483 63.5 63.9004 57.7802 63.9004 51.0713V49.5713H40.0996V51.0713C40.0996 57.7802 33.9517 63.5 26 63.5C18.0483 63.5 11.9004 57.7802 11.9004 51.0713V49.5713H2.59961C1.82745 49.5711 1.5 49.0488 1.5 48.75V32.5C1.5 29.0072 4.20314 25.9142 8.1377 25.0039L8.87012 24.834L9.17285 24.1455L16.9541 6.4502C18.2624 3.53 21.5039 1.5 25.2412 1.5ZM26 42.6074C21.0346 42.6074 16.7003 46.2471 16.7002 51.0713C16.7002 55.8956 21.0346 59.5361 26 59.5361C30.9654 59.5361 35.2998 55.8956 35.2998 51.0713C35.2997 46.2471 30.9654 42.6074 26 42.6074ZM78 42.6074C73.0346 42.6074 68.7003 46.2471 68.7002 51.0713C68.7002 55.8956 73.0346 59.5361 78 59.5361C82.9654 59.5361 87.2998 55.8956 87.2998 51.0713C87.2997 46.2471 82.9654 42.6074 78 42.6074ZM23.8721 8.67285L17.6318 22.6006L16.6855 24.7139H39.2002V7.78613H24.2695L23.8721 8.67285ZM44 24.7139H75.8398L73.5986 22.2129L61.1191 8.28516L60.6719 7.78613H44V24.7139Z" stroke="#F07807" stroke-width="3"/>
</svg>
