<svg width="100" height="65" viewBox="0 0 100 65" fill="none" xmlns="http://www.w3.org/2000/svg">
<path d="M38 38.6426H38.9873C42.3454 40.0914 46.043 40.9639 50 40.9639C53.9548 40.9639 57.667 40.0923 61.0137 38.6426H62C71.2157 38.6426 78.5 45.5609 78.5 53.8574V58.0361C78.4998 60.9497 75.9187 63.5 72.5 63.5H27.5C24.0813 63.5 21.5002 60.9497 21.5 58.0361V53.8574C21.5 45.5609 28.7843 38.6426 38 38.6426ZM80 34H90C94.7938 34 98.5 37.5957 98.5 41.7861V46.4287C98.4999 48.0656 97.0438 49.5713 95 49.5713H85.9492C84.7162 43.5179 80.9446 38.3813 75.7256 35.0586C76.9774 34.3884 78.4339 34 80 34ZM10 34H20C21.5658 34 23.0218 34.3886 24.2734 35.0586C19.0539 38.3818 15.2824 43.519 14.0381 49.5713H5C2.95624 49.5713 1.50008 48.0656 1.5 46.4287V41.7861C1.5 37.5957 5.20618 34 10 34ZM50 1.5C58.9501 1.5 66 8.20015 66 16.25C66 24.2999 58.9501 31 50 31C41.0499 31 34 24.2999 34 16.25C34 8.20015 41.0499 1.5 50 1.5ZM15 10.7861C19.7938 10.7861 23.4999 14.3809 23.5 18.5713C23.5 22.7618 19.7938 26.3574 15 26.3574C10.2062 26.3574 6.5 22.7618 6.5 18.5713C6.50008 14.3809 10.2062 10.7861 15 10.7861ZM85 10.7861C89.7938 10.7861 93.4999 14.3809 93.5 18.5713C93.5 22.7618 89.7938 26.3574 85 26.3574C80.2062 26.3574 76.5 22.7618 76.5 18.5713C76.5001 14.3809 80.2062 10.7861 85 10.7861Z" stroke="#F07807" stroke-width="3"/>
</svg>
